<svg width="24" height="18" viewBox="0 0 24 18" fill="none" xmlns="http://www.w3.org/2000/svg">
<path d="M0.333374 1.99482C0.333374 1.35315 0.853707 0.833984 1.49421 0.833984H10.8392C11.1471 0.833984 11.4423 0.956286 11.66 1.17398C11.8777 1.39168 12 1.68695 12 1.99482C12 2.30269 11.8777 2.59795 11.66 2.81565C11.4423 3.03335 11.1471 3.15565 10.8392 3.15565H1.49421C1.18634 3.15565 0.891073 3.03335 0.673374 2.81565C0.455676 2.59795 0.333374 2.30269 0.333374 1.99482Z" fill="white"/>
<path d="M0.333374 9.00068C0.333374 8.35901 0.853707 7.83984 1.49421 7.83984H22.5059C22.8137 7.83984 23.109 7.96215 23.3267 8.17984C23.5444 8.39754 23.6667 8.6928 23.6667 9.00068C23.6667 9.30855 23.5444 9.60381 23.3267 9.82151C23.109 10.0392 22.8137 10.1615 22.5059 10.1615H1.49421C1.18634 10.1615 0.891073 10.0392 0.673374 9.82151C0.455676 9.60381 0.333374 9.30855 0.333374 9.00068Z" fill="white"/>
<path d="M1.49421 14.8457C1.18634 14.8457 0.891073 14.968 0.673374 15.1857C0.455676 15.4034 0.333374 15.6987 0.333374 16.0065C0.333374 16.3144 0.455676 16.6097 0.673374 16.8274C0.891073 17.0451 1.18634 17.1674 1.49421 17.1674H15.5059C15.8137 17.1674 16.109 17.0451 16.3267 16.8274C16.5444 16.6097 16.6667 16.3144 16.6667 16.0065C16.6667 15.6987 16.5444 15.4034 16.3267 15.1857C16.109 14.968 15.8137 14.8457 15.5059 14.8457H1.49421Z" fill="white"/>
</svg>
